<svg width="760" height="640" viewBox="0 0 760 640" fill="none" xmlns="http://www.w3.org/2000/svg" role="img" aria-labelledby="title desc">
  <title id="title">Compass policy map preview</title>
  <desc id="desc">A composed interface preview showing media policy sources, confidence signals, and an answer panel.</desc>
  <rect width="760" height="640" rx="18" fill="#F8F6F1"/>
  <rect x="1" y="1" width="758" height="638" rx="17" stroke="#D8DDE1" stroke-width="2"/>
  <path d="M0 113H760" stroke="#E2DED4"/>
  <path d="M0 487H760" stroke="#E2DED4"/>
  <path d="M105 0V640" stroke="#E6E0D3"/>
  <path d="M655 0V640" stroke="#E6E0D3"/>
  <circle cx="592" cy="104" r="116" fill="#E8EDF2"/>
  <circle cx="592" cy="104" r="82" fill="#F2DFC0"/>
  <circle cx="592" cy="104" r="42" fill="#172033"/>
  <path d="M592 79L606 129L592 121L578 129L592 79Z" fill="#D5B978"/>
  <path d="M592 79L592 121" stroke="#FBF7EE" stroke-width="3" stroke-linecap="round"/>
  <rect x="42" y="42" width="332" height="52" rx="10" fill="#172033"/>
  <circle cx="70" cy="68" r="10" stroke="#D5B978" stroke-width="3"/>
  <path d="M78 76L90 88" stroke="#D5B978" stroke-width="3" stroke-linecap="round"/>
  <text x="110" y="74" fill="#F8F6F1" font-family="Arial, sans-serif" font-size="18" font-weight="700">정책 기준을 질문합니다</text>
  <rect x="42" y="135" width="308" height="304" rx="14" fill="white" stroke="#D8DDE1" stroke-width="2"/>
  <text x="68" y="173" fill="#7A5518" font-family="Arial, sans-serif" font-size="14" font-weight="700">지원 매체</text>
  <g>
    <rect x="68" y="196" width="96" height="42" rx="8" fill="#EEF2F5" stroke="#C9D2DC"/>
    <text x="92" y="222" fill="#172033" font-family="Arial, sans-serif" font-size="15" font-weight="700">Meta</text>
  </g>
  <g>
    <rect x="176" y="196" width="134" height="42" rx="8" fill="#FFF3D8" stroke="#D5B978"/>
    <text x="198" y="222" fill="#172033" font-family="Arial, sans-serif" font-size="15" font-weight="700">Google/YT</text>
  </g>
  <g>
    <rect x="68" y="252" width="96" height="42" rx="8" fill="#F8F6F1" stroke="#D8DDE1"/>
    <text x="91" y="278" fill="#172033" font-family="Arial, sans-serif" font-size="15" font-weight="700">Naver</text>
  </g>
  <g>
    <rect x="176" y="252" width="96" height="42" rx="8" fill="#F8F6F1" stroke="#D8DDE1"/>
    <text x="199" y="278" fill="#172033" font-family="Arial, sans-serif" font-size="15" font-weight="700">Kakao</text>
  </g>
  <path d="M70 330H310" stroke="#E2DED4" stroke-width="2"/>
  <circle cx="82" cy="365" r="7" fill="#D5B978"/>
  <text x="102" y="371" fill="#344052" font-family="Arial, sans-serif" font-size="16" font-weight="700">공식 정책 문서 우선</text>
  <circle cx="82" cy="403" r="7" fill="#293B5A"/>
  <text x="102" y="409" fill="#344052" font-family="Arial, sans-serif" font-size="16" font-weight="700">출처와 관련 문단 표시</text>
  <rect x="398" y="170" width="280" height="246" rx="14" fill="#172033"/>
  <text x="426" y="210" fill="#D5B978" font-family="Arial, sans-serif" font-size="13" font-weight="700" letter-spacing="2">ANSWER CHECK</text>
  <text x="426" y="250" fill="#F8F6F1" font-family="Arial, sans-serif" font-size="24" font-weight="700">답변과 근거를</text>
  <text x="426" y="284" fill="#F8F6F1" font-family="Arial, sans-serif" font-size="24" font-weight="700">함께 확인</text>
  <rect x="426" y="322" width="200" height="14" rx="7" fill="#344052"/>
  <rect x="426" y="322" width="146" height="14" rx="7" fill="#D5B978"/>
  <rect x="426" y="356" width="160" height="14" rx="7" fill="#344052"/>
  <rect x="426" y="356" width="108" height="14" rx="7" fill="#F2DFC0"/>
  <rect x="78" y="510" width="604" height="72" rx="14" fill="#FBF7EE" stroke="#D2CEC4" stroke-width="2"/>
  <text x="110" y="554" fill="#172033" font-family="Arial, sans-serif" font-size="18" font-weight="700">조건이 부족한 질문은 확인 필요 항목으로 분리됩니다</text>
  <circle cx="638" cy="546" r="14" fill="#D5B978"/>
  <path d="M631 546L636 551L647 539" stroke="#172033" stroke-width="3" stroke-linecap="round" stroke-linejoin="round"/>
</svg>
